<svg version="1.1" xmlns="http://www.w3.org/2000/svg" viewBox="0 0 505.109375 747.13671875" width="1010.21875" height="1494.2734375">
  <!-- svg-source:excalidraw -->
  
  <defs>
    <style class="style-fonts">
      @font-face {
        font-family: "Virgil";
        src: url("https://excalidraw.com/Virgil.woff2");
      }
      @font-face {
        font-family: "Cascadia";
        src: url("https://excalidraw.com/Cascadia.woff2");
      }
    </style>
    
  </defs>
  <rect x="0" y="0" width="505.109375" height="747.13671875" fill="#ffffff"></rect><g stroke-linecap="round" transform="translate(12.451171875 369.12890625) rotate(0 240.392578125 28.53125)"><path d="M14.27 0 M14.27 0 C109.23 -0.63, 205.66 0.74, 466.52 0 M14.27 0 C163.69 0.46, 313.14 1.12, 466.52 0 M466.52 0 C475.06 0.29, 481.44 4.61, 480.79 14.27 M466.52 0 C475.66 1.53, 480.61 2.58, 480.79 14.27 M480.79 14.27 C480.56 21.77, 479.58 31.31, 480.79 42.8 M480.79 14.27 C479.94 19.68, 480.06 26.82, 480.79 42.8 M480.79 42.8 C482.33 51.08, 476.31 55.55, 466.52 57.06 M480.79 42.8 C480.99 50.04, 474.54 59.03, 466.52 57.06 M466.52 57.06 C299.27 56.81, 133.69 57.01, 14.27 57.06 M466.52 57.06 C374.23 58.1, 282.01 58.63, 14.27 57.06 M14.27 57.06 C6.53 56.56, 1.16 53.58, 0 42.8 M14.27 57.06 C4.34 55.72, -0.66 53.9, 0 42.8 M0 42.8 C-0.52 38.28, 0.57 30.52, 0 14.27 M0 42.8 C-0.86 35.85, 0.24 29, 0 14.27 M0 14.27 C-1.55 5.3, 4.92 1.53, 14.27 0 M0 14.27 C0.83 4.35, 4.97 1.07, 14.27 0" stroke="#1e1e1e" stroke-width="1" fill="none"></path></g><g stroke-linecap="round" transform="translate(14.32421875 692.96875) rotate(0 240.392578125 22.083984375)"><path d="M11.04 0 M11.04 0 C122.26 -0.49, 235.52 -0.22, 469.74 0 M11.04 0 C173.1 -1.57, 334.16 -1.81, 469.74 0 M469.74 0 C476.03 0.69, 481.95 4.64, 480.79 11.04 M469.74 0 C476.13 0.32, 480.8 5.34, 480.79 11.04 M480.79 11.04 C479.44 19.41, 481.27 25.66, 480.79 33.13 M480.79 11.04 C480.11 18.85, 479.92 26.88, 480.79 33.13 M480.79 33.13 C479.55 42.07, 476.53 45.78, 469.74 44.17 M480.79 33.13 C479.13 38.84, 474.96 43.09, 469.74 44.17 M469.74 44.17 C341.16 44.78, 213.99 45.46, 11.04 44.17 M469.74 44.17 C367.41 45.88, 265.5 45.77, 11.04 44.17 M11.04 44.17 C3.06 43.4, 0.48 41.22, 0 33.13 M11.04 44.17 C5.2 45.01, 2.03 40.03, 0 33.13 M0 33.13 C1.46 24.46, 1.74 17.21, 0 11.04 M0 33.13 C0.77 25.93, -1.02 20.35, 0 11.04 M0 11.04 C-0.52 2.8, 5 0.97, 11.04 0 M0 11.04 C-1.88 5.84, 5.35 -0.09, 11.04 0" stroke="#1e1e1e" stroke-width="1" fill="none"></path></g><g transform="translate(144.294921875 381.454144122128) rotate(0 113.41432189941406 16.530740438935993)"><text x="0" y="0" font-family="Virgil, Segoe UI Emoji" font-size="26.44918470229759px" fill="#1e1e1e" text-anchor="start" style="white-space: pre;" direction="ltr" dominant-baseline="text-before-edge">Rke2 - Rancher01</text></g><g stroke-linecap="round" transform="translate(10 278.48046875) rotate(0 240.392578125 43.05859375)"><path d="M21.53 0 M21.53 0 C188.66 2.63, 355.64 2.25, 459.26 0 M21.53 0 C182.18 1.79, 342.57 1.17, 459.26 0 M459.26 0 C472.91 1.39, 482.38 5.77, 480.79 21.53 M459.26 0 C475.7 1.84, 482.6 5.13, 480.79 21.53 M480.79 21.53 C482.08 37.32, 478.92 51.1, 480.79 64.59 M480.79 21.53 C481.51 38.35, 481.48 55.07, 480.79 64.59 M480.79 64.59 C479.85 78.89, 474.76 87.93, 459.26 86.12 M480.79 64.59 C480.94 79.26, 474.37 88.16, 459.26 86.12 M459.26 86.12 C297.1 84.19, 136.51 83.57, 21.53 86.12 M459.26 86.12 C344.14 87.72, 230.21 87.73, 21.53 86.12 M21.53 86.12 C6.24 85.57, 1.96 77.36, 0 64.59 M21.53 86.12 C6.4 87.73, -0.13 80.56, 0 64.59 M0 64.59 C-1.11 51.96, 0.77 40.02, 0 21.53 M0 64.59 C-0.37 47.54, 0.1 31.61, 0 21.53 M0 21.53 C0.41 8.05, 5.27 -1.16, 21.53 0 M0 21.53 C0.11 5.09, 5.2 0.46, 21.53 0" stroke="#1e1e1e" stroke-width="1" fill="none"></path></g><g transform="translate(180.083984375 299.46484375) rotate(0 69.69718160629276 23.017578125)"><text x="0" y="0" font-family="Virgil, Segoe UI Emoji" font-size="36.828124999999986px" fill="#1e1e1e" text-anchor="start" style="white-space: pre;" direction="ltr" dominant-baseline="text-before-edge">Rancher</text></g><g transform="translate(139.29712677001953 700.566915811064) rotate(0 110.43983459472656 16.530740438935993)"><text x="0" y="0" font-family="Virgil, Segoe UI Emoji" font-size="26.44918470229759px" fill="#1e1e1e" text-anchor="start" style="white-space: pre;" direction="ltr" dominant-baseline="text-before-edge">Rke2 - Cluster01</text></g><g stroke-linecap="round" transform="translate(181.92578125 618.5703125) rotate(0 66 33)"><path d="M16.5 0 M16.5 0 C46.16 -0.61, 73.45 1.01, 115.5 0 M16.5 0 C45.62 -0.03, 74.97 -0.07, 115.5 0 M115.5 0 C128.33 0.37, 131.72 5.16, 132 16.5 M115.5 0 C125.9 1.94, 132.28 7.53, 132 16.5 M132 16.5 C131.22 25.44, 133.26 31.17, 132 49.5 M132 16.5 C132.65 25.9, 132.49 34.71, 132 49.5 M132 49.5 C131.37 62.01, 125.58 67.15, 115.5 66 M132 49.5 C130.43 61.62, 126.3 67.53, 115.5 66 M115.5 66 C78.87 65.1, 42.37 66.03, 16.5 66 M115.5 66 C82.57 64.33, 51.43 64.88, 16.5 66 M16.5 66 C4.66 65.05, -1.79 60.03, 0 49.5 M16.5 66 C7.29 66.47, -1.48 59.32, 0 49.5 M0 49.5 C0.25 36.13, -0.39 24.59, 0 16.5 M0 49.5 C-0.95 40.62, 0.71 33.5, 0 16.5 M0 16.5 C0.99 5, 5.99 -1.86, 16.5 0 M0 16.5 C1.02 7.19, 3.74 1.89, 16.5 0" stroke="#1e1e1e" stroke-width="1" fill="none"></path></g><g transform="translate(204.7158203125 639.0703125) rotate(0 43.2099609375 12.5)"><text x="43.2099609375" y="0" font-family="Virgil, Segoe UI Emoji" font-size="20px" fill="#1e1e1e" text-anchor="middle" style="white-space: pre;" direction="ltr" dominant-baseline="text-before-edge">CowDemo</text></g><g stroke-linecap="round"><g transform="translate(249.130859375 442.51953125) rotate(0 0.1691410743421784 77.43328537261112)"><path d="M-0.67 0.78 C-0.99 26.19, -1.2 127.82, -0.99 153.6 M1.18 0.15 C1.17 26.2, 1.53 129.13, 1.38 154.72" stroke="#1e1e1e" stroke-width="1" fill="none"></path></g><g transform="translate(249.130859375 442.51953125) rotate(0 0.1691410743421784 77.43328537261112)"><path d="M-7.56 125.43 C-6.07 138.68, 0.85 147.8, 1.1 153.55 M-8.25 126.61 C-6.94 132.58, -3.17 139.53, 0.38 155.68" stroke="#1e1e1e" stroke-width="1" fill="none"></path></g><g transform="translate(249.130859375 442.51953125) rotate(0 0.1691410743421784 77.43328537261112)"><path d="M12.96 125.44 C6.74 138.57, 5.94 147.69, 1.1 153.55 M12.27 126.62 C8.68 132.53, 7.53 139.48, 0.38 155.68" stroke="#1e1e1e" stroke-width="1" fill="none"></path></g></g><mask></mask><g stroke-linecap="round" transform="translate(89.599609375 10.01953125) rotate(0 66.556640625 71.73046875)"><path d="M83.75 18 M83.75 18 C95.86 28.31, 106.01 41.34, 116.36 54 M83.75 18 C90.58 25.19, 97.14 32.63, 116.36 54 M116.36 54 C133.12 70.75, 131.92 72.5, 116.36 90 M116.36 54 C133.42 72.99, 133.11 72.59, 116.36 90 M116.36 90 C106.46 100.46, 95.3 114.09, 83.75 125.46 M116.36 90 C110.1 98.07, 103.3 104.27, 83.75 125.46 M83.75 125.46 C67.92 142.02, 65.41 144.55, 50.25 125.46 M83.75 125.46 C68.38 144.58, 65.47 142.07, 50.25 125.46 M50.25 125.46 C43.03 115.5, 36.73 108.27, 16.75 90 M50.25 125.46 C39.05 114.92, 29.31 103.29, 16.75 90 M16.75 90 C1.25 72.63, -1.99 72.69, 16.75 54 M16.75 90 C-0.52 71.13, -2.2 72.76, 16.75 54 M16.75 54 C27.46 41.56, 42.33 25.59, 50.25 18 M16.75 54 C26 43.04, 37.1 32.73, 50.25 18 M50.25 18 C67.97 1.71, 66.28 0.77, 83.75 18 M50.25 18 C67.43 -0.99, 65.13 -1.2, 83.75 18" stroke="#1e1e1e" stroke-width="1" fill="none"></path></g><g transform="translate(134.970703125 55.703125) rotate(0 22.339981079101562 25)"><text x="0" y="0" font-family="Virgil, Segoe UI Emoji" font-size="20px" fill="#1e1e1e" text-anchor="start" style="white-space: pre;" direction="ltr" dominant-baseline="text-before-edge">End</text><text x="0" y="25" font-family="Virgil, Segoe UI Emoji" font-size="20px" fill="#1e1e1e" text-anchor="start" style="white-space: pre;" direction="ltr" dominant-baseline="text-before-edge">User</text></g><g stroke-linecap="round"><g transform="translate(146.298828125 164.4609375) rotate(0 0.7828784365206616 50.97819044595583)"><path d="M-0.47 0.68 C-0.31 17.53, 1.58 84.15, 2.03 100.73 M1.49 -0.01 C1.39 17.03, 1.05 85.15, 1.07 101.97" stroke="#1e1e1e" stroke-width="1" fill="none"></path></g><g transform="translate(146.298828125 164.4609375) rotate(0 0.7828784365206616 50.97819044595583)"><path d="M-7.99 73.71 C-6.19 85.12, -3.16 94.94, -0.01 103.14 M-9.84 73.43 C-6.15 81.22, -4.87 88.36, 1.44 102.86" stroke="#1e1e1e" stroke-width="1" fill="none"></path></g><g transform="translate(146.298828125 164.4609375) rotate(0 0.7828784365206616 50.97819044595583)"><path d="M12.53 73.75 C6.35 85.07, 1.4 94.87, -0.01 103.14 M10.68 73.48 C9.2 81.31, 5.31 88.44, 1.44 102.86" stroke="#1e1e1e" stroke-width="1" fill="none"></path></g></g><mask></mask><g stroke-linecap="round"><g transform="translate(170.3206371884794 265.4397783040442) rotate(0 0.07636754734636497 -50.12069584190846)"><path d="M-0.81 0.03 C-0.85 -16.22, 0 -81.86, 0.24 -98.43 M0.96 -1 C0.76 -17.53, -0.41 -84.05, -0.54 -100.27" stroke="#1e1e1e" stroke-width="1" fill="none"></path></g><g transform="translate(170.3206371884794 265.4397783040442) rotate(0 0.07636754734636497 -50.12069584190846)"><path d="M10.15 -71.68 C7.62 -80.62, 2.36 -91.81, 0.08 -100.19 M10.7 -72.71 C7.15 -80.34, 3.56 -87.24, 0.15 -100.41" stroke="#1e1e1e" stroke-width="1" fill="none"></path></g><g transform="translate(170.3206371884794 265.4397783040442) rotate(0 0.07636754734636497 -50.12069584190846)"><path d="M-10.37 -71.41 C-5.94 -80.3, -4.25 -91.58, 0.08 -100.19 M-9.82 -72.44 C-7.79 -80, -5.8 -86.97, 0.15 -100.41" stroke="#1e1e1e" stroke-width="1" fill="none"></path></g></g><mask></mask><g stroke-linecap="round" transform="translate(262.984375 10) rotate(0 66.556640625 71.73046875)"><path d="M83.75 18 M83.75 18 C94.38 29.94, 101.11 38.79, 116.36 54 M83.75 18 C91.98 26.87, 99.27 34.18, 116.36 54 M116.36 54 C134.07 70.04, 131.43 70.46, 116.36 90 M116.36 54 C135.2 70.99, 133.85 72.05, 116.36 90 M116.36 90 C106.32 100.39, 96.94 110.93, 83.75 125.46 M116.36 90 C103.73 103.31, 91.42 117.98, 83.75 125.46 M83.75 125.46 C65.69 145.03, 65.02 144.57, 50.25 125.46 M83.75 125.46 C68.71 144.13, 67.5 145.21, 50.25 125.46 M50.25 125.46 C37.79 113.58, 26.59 99.63, 16.75 90 M50.25 125.46 C37.3 111.71, 26.62 99.09, 16.75 90 M16.75 90 C-1.26 73.41, -1.76 72.63, 16.75 54 M16.75 90 C0.98 71.7, 1.28 73.97, 16.75 54 M16.75 54 C22.95 47.73, 29.48 39.65, 50.25 18 M16.75 54 C28.64 39.84, 41.9 25.71, 50.25 18 M50.25 18 C68.81 -0.6, 65.75 0.22, 83.75 18 M50.25 18 C67.49 -1.79, 66.59 0.5, 83.75 18" stroke="#1e1e1e" stroke-width="1" fill="none"></path></g><g transform="translate(307.04271697998047 56.865234375) rotate(0 22.71997833251953 25)"><text x="22.71997833251953" y="0" font-family="Virgil, Segoe UI Emoji" font-size="20px" fill="#1e1e1e" text-anchor="middle" style="white-space: pre;" direction="ltr" dominant-baseline="text-before-edge">Git</text><text x="22.71997833251953" y="25" font-family="Virgil, Segoe UI Emoji" font-size="20px" fill="#1e1e1e" text-anchor="middle" style="white-space: pre;" direction="ltr" dominant-baseline="text-before-edge">Repo</text></g><g stroke-linecap="round"><g transform="translate(333.0550121884794 159.04915330404418) rotate(0 0.6773431319743395 50.52879466628655)"><path d="M-0.45 0.02 C-0.2 16.84, 1.31 84.11, 1.81 100.8 M1.51 -1.02 C1.56 15.98, 0.64 85.09, 0.73 102.07" stroke="#1e1e1e" stroke-width="1" fill="none"></path></g><g transform="translate(333.0550121884794 159.04915330404418) rotate(0 0.6773431319743395 50.52879466628655)"><path d="M-9.35 73.41 C-6.98 83.8, -4.78 93.49, 0.37 102.42 M-9.23 73.18 C-5.89 81.66, -3.53 89.94, 0.79 101.27" stroke="#1e1e1e" stroke-width="1" fill="none"></path></g><g transform="translate(333.0550121884794 159.04915330404418) rotate(0 0.6773431319743395 50.52879466628655)"><path d="M11.17 73.51 C6.91 83.8, 2.48 93.45, 0.37 102.42 M11.29 73.29 C8.53 81.93, 4.79 90.18, 0.79 101.27" stroke="#1e1e1e" stroke-width="1" fill="none"></path></g></g><mask></mask></svg>